<?xml version="1.0" encoding="UTF-8"?>
<svg width="80px" height="80px" viewBox="0 0 80 80" version="1.1" xmlns="http://www.w3.org/2000/svg" xmlns:xlink="http://www.w3.org/1999/xlink">
    <!-- Generator: Sketch 52.2 (67145) - http://www.bohemiancoding.com/sketch -->
    <title>type/weather-02</title>
    <desc>Created with Sketch.</desc>
    <defs>
        <filter x="-15.4%" y="-19.1%" width="130.9%" height="138.2%" filterUnits="objectBoundingBox" id="filter-1">
            <feOffset dx="0" dy="0" in="SourceAlpha" result="shadowOffsetOuter1"></feOffset>
            <feGaussianBlur stdDeviation="2.5" in="shadowOffsetOuter1" result="shadowBlurOuter1"></feGaussianBlur>
            <feColorMatrix values="0 0 0 0 0   0 0 0 0 0   0 0 0 0 0  0 0 0 0.2 0" type="matrix" in="shadowBlurOuter1" result="shadowMatrixOuter1"></feColorMatrix>
            <feMerge>
                <feMergeNode in="shadowMatrixOuter1"></feMergeNode>
                <feMergeNode in="SourceGraphic"></feMergeNode>
            </feMerge>
        </filter>
        <circle id="path-2" cx="19" cy="18" r="7"></circle>
        <filter x="-53.6%" y="-53.6%" width="207.1%" height="207.1%" filterUnits="objectBoundingBox" id="filter-3">
            <feOffset dx="0" dy="0" in="SourceAlpha" result="shadowOffsetOuter1"></feOffset>
            <feGaussianBlur stdDeviation="2.5" in="shadowOffsetOuter1" result="shadowBlurOuter1"></feGaussianBlur>
            <feColorMatrix values="0 0 0 0 0.961710989   0 0 0 0 0.65036732   0 0 0 0 0.138542295  0 0 0 1 0" type="matrix" in="shadowBlurOuter1"></feColorMatrix>
        </filter>
        <linearGradient x1="50%" y1="100%" x2="50%" y2="3.061617e-15%" id="linearGradient-4">
            <stop stop-color="#E6E6E6" offset="0%"></stop>
            <stop stop-color="#FFFFFF" offset="100%"></stop>
        </linearGradient>
    </defs>
    <g id="type/weather-02" stroke="none" stroke-width="1" fill="none" fill-rule="evenodd">
        <rect id="space" fill-opacity="0.01" fill="#D8D8D8" fill-rule="nonzero" x="0" y="0" width="80" height="80"></rect>
        <g id="weather-02" filter="url(#filter-1)" transform="translate(6.000000, 13.000000)" fill-rule="nonzero">
            <circle id="Oval" fill="#FFF9D0" opacity="0.5" cx="19" cy="18" r="18"></circle>
            <g id="Oval">
                <use fill="black" fill-opacity="1" filter="url(#filter-3)" xlink:href="#path-2"></use>
                <use fill="#FFF091" xlink:href="#path-2"></use>
            </g>
            <path d="M52.2142857,54.9881003 L52.2142857,55 L12.1428571,55 C5.43654232,55 0,49.5731485 0,42.8787879 C0,36.1844273 5.43654232,30.7575758 12.1428571,30.7575758 C12.3671768,30.7575758 12.5900759,30.7636475 12.8113983,30.7756354 C14.7536713,21.7586907 22.7858131,15 32.3993506,15 C39.8177536,15 46.2944948,19.0245466 49.7579496,25.0057079 C50.7474216,24.8032826 51.7719876,24.6969697 52.8214286,24.6969697 C61.2043221,24.6969697 68,31.4805341 68,39.8484848 C68,48.2164356 61.2043221,55 52.8214286,55 C52.618089,55 52.4156832,54.9960087 52.2142857,54.9881003 Z" id="Combined-Shape" fill="url(#linearGradient-4)" opacity="0.9"></path>
        </g>
    </g>
</svg>